<mxfile host="app.diagrams.net" modified="2020-11-01T15:03:05.550Z" agent="5.0 (Windows NT 10.0; Win64; x64) AppleWebKit/537.36 (KHTML, like Gecko) Chrome/86.0.4240.111 Safari/537.36" etag="pPulrF-4oK9u1jv47-9Y" version="13.7.7" type="github">
  <diagram id="HdOy5hCFVc_l6h5zoy2q" name="Page-1">
    <mxGraphModel dx="981" dy="526" grid="1" gridSize="10" guides="1" tooltips="1" connect="1" arrows="1" fold="1" page="1" pageScale="1" pageWidth="827" pageHeight="1169" math="0" shadow="0">
      <root>
        <mxCell id="0" />
        <mxCell id="1" parent="0" />
        <mxCell id="e1m-v7APDcnokaSs3wws-32" value="" style="edgeStyle=orthogonalEdgeStyle;rounded=0;orthogonalLoop=1;jettySize=auto;html=1;startArrow=classic;startFill=1;endArrow=none;endFill=0;" edge="1" parent="1" source="e1m-v7APDcnokaSs3wws-30" target="e1m-v7APDcnokaSs3wws-31">
          <mxGeometry relative="1" as="geometry" />
        </mxCell>
        <mxCell id="e1m-v7APDcnokaSs3wws-30" value="rue_final.py" style="rounded=1;whiteSpace=wrap;html=1;fillColor=#f8cecc;strokeColor=#b85450;" vertex="1" parent="1">
          <mxGeometry x="360" y="80" width="80" height="40" as="geometry" />
        </mxCell>
        <mxCell id="e1m-v7APDcnokaSs3wws-31" value="immeuble.py" style="rounded=1;whiteSpace=wrap;html=1;" vertex="1" parent="1">
          <mxGeometry x="360" y="160" width="80" height="40" as="geometry" />
        </mxCell>
        <mxCell id="e1m-v7APDcnokaSs3wws-34" style="edgeStyle=orthogonalEdgeStyle;rounded=0;orthogonalLoop=1;jettySize=auto;html=1;exitX=0.5;exitY=0;exitDx=0;exitDy=0;entryX=0.5;entryY=1;entryDx=0;entryDy=0;startArrow=none;startFill=0;endArrow=classic;endFill=1;" edge="1" parent="1" source="e1m-v7APDcnokaSs3wws-33" target="e1m-v7APDcnokaSs3wws-30">
          <mxGeometry relative="1" as="geometry" />
        </mxCell>
        <mxCell id="e1m-v7APDcnokaSs3wws-33" value="sol.py" style="rounded=1;whiteSpace=wrap;html=1;" vertex="1" parent="1">
          <mxGeometry x="160" y="160" width="80" height="40" as="geometry" />
        </mxCell>
        <mxCell id="e1m-v7APDcnokaSs3wws-41" style="edgeStyle=orthogonalEdgeStyle;rounded=0;orthogonalLoop=1;jettySize=auto;html=1;exitX=0.5;exitY=0;exitDx=0;exitDy=0;startArrow=none;startFill=0;endArrow=classic;endFill=1;" edge="1" parent="1" source="e1m-v7APDcnokaSs3wws-35">
          <mxGeometry relative="1" as="geometry">
            <mxPoint x="400" y="200" as="targetPoint" />
          </mxGeometry>
        </mxCell>
        <mxCell id="e1m-v7APDcnokaSs3wws-35" value="rdc.py" style="rounded=1;whiteSpace=wrap;html=1;" vertex="1" parent="1">
          <mxGeometry x="230" y="240" width="80" height="40" as="geometry" />
        </mxCell>
        <mxCell id="e1m-v7APDcnokaSs3wws-40" value="" style="edgeStyle=orthogonalEdgeStyle;rounded=0;orthogonalLoop=1;jettySize=auto;html=1;startArrow=none;startFill=0;endArrow=classic;endFill=1;" edge="1" parent="1" source="e1m-v7APDcnokaSs3wws-36" target="e1m-v7APDcnokaSs3wws-31">
          <mxGeometry relative="1" as="geometry" />
        </mxCell>
        <mxCell id="e1m-v7APDcnokaSs3wws-36" value="etage.py" style="rounded=1;whiteSpace=wrap;html=1;" vertex="1" parent="1">
          <mxGeometry x="330" y="240" width="80" height="40" as="geometry" />
        </mxCell>
        <mxCell id="e1m-v7APDcnokaSs3wws-37" value="couleur_aleatoire.py" style="rounded=1;whiteSpace=wrap;html=1;fillColor=#fff2cc;strokeColor=#d6b656;" vertex="1" parent="1">
          <mxGeometry x="414" y="400" width="120" height="40" as="geometry" />
        </mxCell>
        <mxCell id="e1m-v7APDcnokaSs3wws-52" style="edgeStyle=orthogonalEdgeStyle;rounded=0;orthogonalLoop=1;jettySize=auto;html=1;exitX=0.5;exitY=0;exitDx=0;exitDy=0;startArrow=none;startFill=0;endArrow=classic;endFill=1;" edge="1" parent="1" source="e1m-v7APDcnokaSs3wws-38">
          <mxGeometry relative="1" as="geometry">
            <mxPoint x="400" y="200" as="targetPoint" />
          </mxGeometry>
        </mxCell>
        <mxCell id="e1m-v7APDcnokaSs3wws-38" value="toit.py" style="rounded=1;whiteSpace=wrap;html=1;" vertex="1" parent="1">
          <mxGeometry x="560" y="240" width="80" height="40" as="geometry" />
        </mxCell>
        <mxCell id="e1m-v7APDcnokaSs3wws-48" style="edgeStyle=orthogonalEdgeStyle;rounded=0;orthogonalLoop=1;jettySize=auto;html=1;exitX=0.5;exitY=0;exitDx=0;exitDy=0;entryX=0.5;entryY=1;entryDx=0;entryDy=0;startArrow=none;startFill=0;endArrow=classic;endFill=1;" edge="1" parent="1" source="e1m-v7APDcnokaSs3wws-42" target="e1m-v7APDcnokaSs3wws-33">
          <mxGeometry relative="1" as="geometry" />
        </mxCell>
        <mxCell id="e1m-v7APDcnokaSs3wws-42" value="trait.py" style="rounded=1;whiteSpace=wrap;html=1;fillColor=#fff2cc;strokeColor=#d6b656;" vertex="1" parent="1">
          <mxGeometry x="160" y="400" width="80" height="40" as="geometry" />
        </mxCell>
        <mxCell id="e1m-v7APDcnokaSs3wws-43" value="rectangle.py" style="rounded=1;whiteSpace=wrap;html=1;fillColor=#fff2cc;strokeColor=#d6b656;" vertex="1" parent="1">
          <mxGeometry x="300" y="400" width="80" height="40" as="geometry" />
        </mxCell>
        <mxCell id="e1m-v7APDcnokaSs3wws-44" value="ma_rue.py" style="rounded=1;whiteSpace=wrap;html=1;fillColor=#dae8fc;strokeColor=#6c8ebf;" vertex="1" parent="1">
          <mxGeometry x="360" y="480" width="80" height="40" as="geometry" />
        </mxCell>
        <mxCell id="e1m-v7APDcnokaSs3wws-56" style="edgeStyle=orthogonalEdgeStyle;rounded=0;orthogonalLoop=1;jettySize=auto;html=1;exitX=0.5;exitY=0;exitDx=0;exitDy=0;entryX=0.5;entryY=1;entryDx=0;entryDy=0;startArrow=none;startFill=0;endArrow=classic;endFill=1;" edge="1" parent="1" source="e1m-v7APDcnokaSs3wws-45" target="e1m-v7APDcnokaSs3wws-38">
          <mxGeometry relative="1" as="geometry" />
        </mxCell>
        <mxCell id="e1m-v7APDcnokaSs3wws-45" value="toit2.py" style="rounded=1;whiteSpace=wrap;html=1;" vertex="1" parent="1">
          <mxGeometry x="610" y="320" width="80" height="40" as="geometry" />
        </mxCell>
        <mxCell id="e1m-v7APDcnokaSs3wws-58" style="edgeStyle=orthogonalEdgeStyle;rounded=0;orthogonalLoop=1;jettySize=auto;html=1;exitX=0.5;exitY=0;exitDx=0;exitDy=0;startArrow=none;startFill=0;endArrow=classic;endFill=1;" edge="1" parent="1" source="e1m-v7APDcnokaSs3wws-46">
          <mxGeometry relative="1" as="geometry">
            <mxPoint x="599.689655172414" y="280" as="targetPoint" />
          </mxGeometry>
        </mxCell>
        <mxCell id="e1m-v7APDcnokaSs3wws-46" value="toit1.py" style="rounded=1;whiteSpace=wrap;html=1;fillColor=#fff2cc;strokeColor=#d6b656;" vertex="1" parent="1">
          <mxGeometry x="560" y="400" width="80" height="40" as="geometry" />
        </mxCell>
        <mxCell id="e1m-v7APDcnokaSs3wws-49" value="porte.py" style="rounded=1;whiteSpace=wrap;html=1;" vertex="1" parent="1">
          <mxGeometry x="210" y="320" width="80" height="40" as="geometry" />
        </mxCell>
        <mxCell id="e1m-v7APDcnokaSs3wws-53" value="facade.py" style="rounded=1;whiteSpace=wrap;html=1;" vertex="1" parent="1">
          <mxGeometry x="310" y="320" width="80" height="40" as="geometry" />
        </mxCell>
        <mxCell id="e1m-v7APDcnokaSs3wws-54" value="fenetre.py" style="rounded=1;whiteSpace=wrap;html=1;" vertex="1" parent="1">
          <mxGeometry x="410" y="320" width="80" height="40" as="geometry" />
        </mxCell>
        <mxCell id="e1m-v7APDcnokaSs3wws-55" value="balcon.py" style="rounded=1;whiteSpace=wrap;html=1;" vertex="1" parent="1">
          <mxGeometry x="510" y="320" width="80" height="40" as="geometry" />
        </mxCell>
      </root>
    </mxGraphModel>
  </diagram>
</mxfile>
